<?xml version="1.0" encoding="UTF-8" standalone="no"?>
<!-- Created with Inkscape (http://www.inkscape.org/) -->

<svg
   xmlns:dc="http://purl.org/dc/elements/1.1/"
   xmlns:cc="http://creativecommons.org/ns#"
   xmlns:rdf="http://www.w3.org/1999/02/22-rdf-syntax-ns#"
   xmlns:svg="http://www.w3.org/2000/svg"
   xmlns="http://www.w3.org/2000/svg"
   xmlns:sodipodi="http://sodipodi.sourceforge.net/DTD/sodipodi-0.dtd"
   xmlns:inkscape="http://www.inkscape.org/namespaces/inkscape"
   width="66.690613mm"
   height="60.750523mm"
   viewBox="0 0 66.690613 60.750523"
   version="1.1"
   id="svg1959"
   inkscape:version="0.92.4 (5da689c313, 2019-01-14)"
   sodipodi:docname="handson.svg">
  <defs
     id="defs1953" />
  <sodipodi:namedview
     id="base"
     pagecolor="#ffffff"
     bordercolor="#666666"
     borderopacity="1.0"
     inkscape:pageopacity="0.0"
     inkscape:pageshadow="2"
     inkscape:zoom="0.35"
     inkscape:cx="-239.2119"
     inkscape:cy="-165.17713"
     inkscape:document-units="mm"
     inkscape:current-layer="layer1"
     showgrid="false"
     inkscape:window-width="1366"
     inkscape:window-height="715"
     inkscape:window-x="-8"
     inkscape:window-y="-8"
     inkscape:window-maximized="1"
     fit-margin-top="0"
     fit-margin-left="0"
     fit-margin-right="0"
     fit-margin-bottom="0" />
  <metadata
     id="metadata1956">
    <rdf:RDF>
      <cc:Work
         rdf:about="">
        <dc:format>image/svg+xml</dc:format>
        <dc:type
           rdf:resource="http://purl.org/dc/dcmitype/StillImage" />
        <dc:title></dc:title>
      </cc:Work>
    </rdf:RDF>
  </metadata>
  <g
     inkscape:label="Layer 1"
     inkscape:groupmode="layer"
     id="layer1"
     transform="translate(-39.478983,-44.379695)">
    <g
       id="g2576">
      <g
         transform="matrix(0.26458333,0,0,0.26458333,38.957758,40.888328)"
         id="g6153"
         style="vector-effect:none;fill:#b75c00;fill-opacity:1;stroke:none;stroke-width:0.69972032;stroke-linecap:butt;stroke-linejoin:miter;stroke-miterlimit:4;stroke-dasharray:none;stroke-dashoffset:0;stroke-opacity:1">
        <g
           id="g6151"
           style="vector-effect:none;fill:#b75c00;fill-opacity:1;stroke:none;stroke-width:0.69972032;stroke-linecap:butt;stroke-linejoin:miter;stroke-miterlimit:4;stroke-dasharray:none;stroke-dashoffset:0;stroke-opacity:1">
          <g
             id="g6147"
             style="vector-effect:none;fill:#b75c00;fill-opacity:1;stroke:none;stroke-width:0.69972032;stroke-linecap:butt;stroke-linejoin:miter;stroke-miterlimit:4;stroke-dasharray:none;stroke-dashoffset:0;stroke-opacity:1">
            <g
               id="g6137"
               style="vector-effect:none;fill:#b75c00;fill-opacity:1;stroke:none;stroke-width:0.69972032;stroke-linecap:butt;stroke-linejoin:miter;stroke-miterlimit:4;stroke-dasharray:none;stroke-dashoffset:0;stroke-opacity:1">
              <polygon
                 id="polygon6135"
                 points="136.917,161.28 136.917,242.804 190.279,242.804 224.932,242.804 224.932,161.28 254.029,161.28 254.029,132.702 190.279,132.702 107.82,132.702 107.82,161.28 "
                 style="vector-effect:none;fill:#b75c00;fill-opacity:1;stroke:none;stroke-width:0.69972032;stroke-linecap:butt;stroke-linejoin:miter;stroke-miterlimit:4;stroke-dasharray:none;stroke-dashoffset:0;stroke-opacity:1" />
            </g>
            <path
               id="path6139"
               d="M 85.072,56.836 C 84.999,69.936 75.315,79.756 62.446,79.778 49.453,79.8 39.522,70.044 39.465,57.202 39.407,44.522 49.621,34.093 62.084,34.107 74.863,34.122 85.141,44.284 85.072,56.836 Z"
               inkscape:connector-curvature="0"
               style="vector-effect:none;fill:#b75c00;fill-opacity:1;stroke:none;stroke-width:0.69972032;stroke-linecap:butt;stroke-linejoin:miter;stroke-miterlimit:4;stroke-dasharray:none;stroke-dashoffset:0;stroke-opacity:1" />
            <g
               id="g6143"
               style="vector-effect:none;fill:#b75c00;fill-opacity:1;stroke:none;stroke-width:0.69972032;stroke-linecap:butt;stroke-linejoin:miter;stroke-miterlimit:4;stroke-dasharray:none;stroke-dashoffset:0;stroke-opacity:1">
              <path
                 id="path6141"
                 d="m 75.707,233.691 c 5.677,0 11.361,-0.281 16.964,-0.561 5.235,-0.259 10.179,-0.505 14.871,-0.505 5.788,0 10.48,-4.693 10.48,-10.48 0,-5.787 -4.693,-10.48 -10.48,-10.48 -5.213,0 -10.651,0.27 -15.91,0.532 -11.574,0.573 -23.54,1.168 -33.471,-1.073 -8.143,-1.839 -15.468,-6.861 -20.627,-14.139 -4.672,-6.593 -5.745,-14.105 -7.103,-23.619 -0.203,-1.416 -0.408,-2.844 -0.626,-4.282 l -6.992,-45.993 c -0.872,-5.725 -6.236,-9.66 -11.937,-8.785 -5.723,0.87 -9.657,6.216 -8.785,11.937 l 6.992,45.99 c 0.208,1.375 0.404,2.741 0.597,4.096 1.549,10.839 3.149,22.046 10.752,32.775 8.154,11.506 19.914,19.484 33.111,22.465 7.233,1.632 14.691,2.122 22.164,2.122 z"
                 inkscape:connector-curvature="0"
                 style="vector-effect:none;fill:#b75c00;fill-opacity:1;stroke:none;stroke-width:0.69972032;stroke-linecap:butt;stroke-linejoin:miter;stroke-miterlimit:4;stroke-dasharray:none;stroke-dashoffset:0;stroke-opacity:1" />
            </g>
            <path
               id="path6145"
               d="m 136.811,105.874 h -13.466 c -3.487,0 -8.081,0 -12.645,-0.051 -1.764,-0.021 -3.661,-0.554 -5.21,-1.456 -6.605,-3.856 -13.291,-7.866 -20.46,-12.255 -4.83,-2.964 -11.479,-6.249 -23.803,-5.23 -0.154,0 -0.369,0.051 -0.574,0.051 -12.317,1.456 -20.727,11.999 -19.947,24.778 0.051,0.841 0.103,1.692 0.164,2.533 1.231,19.629 3.015,39.207 3.313,58.836 0.103,7.753 1.846,13.794 5.159,18.234 4.841,6.502 13.025,9.548 24.306,9.456 9.076,-0.082 17.527,-0.051 26.008,-0.031 3.661,0.021 7.323,0.031 11.056,0.031 2.543,0 7.538,-0.062 10.871,-0.103 0.318,0 0.615,-0.01 0.902,-0.01 1.364,-0.02 2.441,-1.128 2.441,-2.492 v -28.121 c 0,-1.364 -1.026,-2.492 -2.39,-2.574 -13.876,-0.851 -33.977,-1.877 -33.977,-1.877 l -1.61,-33.772 c -0.215,-1.867 -0.318,-3.795 -0.472,-5.61 -0.185,-2.431 -0.359,-4.81 -0.544,-7.158 0.697,0.39 1.395,0.769 2.082,1.149 3.692,2.031 7.179,3.948 10.758,5.63 2.431,1.149 4.933,1.815 7.035,1.856 4.4,0.103 9.138,0.154 14.932,0.154 3.61,0 7.22,-0.02 10.83,-0.031 1.785,-0.01 3.579,-0.021 5.364,-0.031 6.769,-0.02 11.866,-4.759 11.855,-11.015 0.001,-6.194 -5.158,-10.881 -11.978,-10.891 z"
               inkscape:connector-curvature="0"
               style="vector-effect:none;fill:#b75c00;fill-opacity:1;stroke:none;stroke-width:0.69972032;stroke-linecap:butt;stroke-linejoin:miter;stroke-miterlimit:4;stroke-dasharray:none;stroke-dashoffset:0;stroke-opacity:1" />
          </g>
          <path
             id="path6149"
             d="m 212.042,121.093 c -1.712,-1.981 -4.28,-3.119 -7.182,-3.888 -0.957,-0.254 -1.922,-0.448 -2.892,-0.607 -0.09,-14.946 -0.223,-29.897 0.05,-44.831 0.168,-9.046 -1.068,-17.427 -5.867,-25.207 -0.714,-1.164 -0.78,-3.096 -0.426,-4.487 1.764,-6.845 3.785,-13.629 5.687,-20.438 0.84,-3.005 0.054,-4.541 -2.897,-5.411 -3.347,-0.984 -6.725,-1.848 -10.096,-2.742 -2.993,-0.792 -4.523,0.012 -5.369,3.005 -7.925,27.985 -15.813,55.981 -23.755,83.96 -0.768,2.694 0.186,4.289 2.681,5.045 3.239,0.984 6.521,1.848 9.784,2.742 3.701,1.008 5.087,0.246 6.149,-3.443 1.428,-4.979 2.795,-9.976 4.241,-14.949 0.24,-0.834 0.534,-1.938 1.17,-2.328 2.843,-1.752 5.825,-3.293 8.98,-5.045 v 33.976 c -0.063,0.008 -0.126,0.008 -0.189,0.016 -2.983,0.38 -5.803,1.115 -8.248,2.487 -1.817,1.02 -3.251,2.255 -3.665,3.978 -0.104,0.43 -0.128,0.904 0.003,1.325 0.208,0.667 1.012,0.99 2.182,0.99 4.733,0.002 9.465,0.001 14.198,0.001 0,0.003 0,0.006 0,0.006 2.637,0.003 5.273,0.004 7.91,0.002 2.161,-0.001 4.322,0.004 6.483,-0.014 1.427,-0.012 2.189,-0.608 2.138,-1.665 -0.043,-0.895 -0.42,-1.726 -1.07,-2.478 z"
             inkscape:connector-curvature="0"
             style="vector-effect:none;fill:#b75c00;fill-opacity:1;stroke:none;stroke-width:0.69972032;stroke-linecap:butt;stroke-linejoin:miter;stroke-miterlimit:4;stroke-dasharray:none;stroke-dashoffset:0;stroke-opacity:1" />
        </g>
      </g>
    </g>
  </g>
</svg>
