<?xml version="1.0" encoding="utf-8"?>
<!-- Generator: Adobe Illustrator 17.0.0, SVG Export Plug-In . SVG Version: 6.00 Build 0)  -->
<!DOCTYPE svg PUBLIC "-//W3C//DTD SVG 1.1//EN" "http://www.w3.org/Graphics/SVG/1.1/DTD/svg11.dtd">
<svg version="1.1" id="Layer_1" xmlns="http://www.w3.org/2000/svg" xmlns:xlink="http://www.w3.org/1999/xlink" x="0px" y="0px"
	 width="1600px" height="60px" viewBox="0 0 1600 60" enable-background="new 0 0 1600 60" xml:space="preserve">
<g id="rect3879" inkscape:connector-curvature="0" sodipodi:nodetypes="cccccccc" opacity="0.806" enable-background="new    ">
	
		<linearGradient id="SVGID_1_" gradientUnits="userSpaceOnUse" x1="364.016" y1="-91.3507" x2="691.1158" y2="-91.3507" gradientTransform="matrix(3.7795 0 0 -3.7795 -1334.7622 -315.2626)">
		<stop  offset="0.3659" style="stop-color:#128954"/>
		<stop  offset="0.4663" style="stop-color:#158753"/>
		<stop  offset="0.5565" style="stop-color:#1D8050"/>
		<stop  offset="0.6429" style="stop-color:#23744C"/>
		<stop  offset="0.7269" style="stop-color:#266445"/>
		<stop  offset="0.8091" style="stop-color:#26503A"/>
		<stop  offset="0.8901" style="stop-color:#20392D"/>
		<stop  offset="0.9685" style="stop-color:#121C18"/>
		<stop  offset="1" style="stop-color:#070909"/>
	</linearGradient>
	<path fill="url(#SVGID_1_)" d="M41.641,28.279h1230.929l-2.061,1.86l-3.206,0.734l-118.057,0.943L41.552,32.213
		C41.581,30.901,40.341,26.288,41.641,28.279L41.641,28.279z"/>
</g>
<g id="layer1" transform="translate(144.38695,-115.11787)" inkscape:groupmode="layer" inkscape:label="Camada 1">
	<g id="g4487" inkscape:export-xdpi="96" inkscape:export-ydpi="96">
		<rect id="rect4483" x="1290.671" y="112.905" fill="none" width="107.143" height="60"/>
		<path id="path6831" inkscape:export-xdpi="96" inkscape:export-ydpi="96" inkscape:connector-curvature="0" fill="#58595B" d="
			M1329.003,112.905c-9.141,0-17.427,3.658-23.478,9.588l-0.734-0.715c-0.076-0.076-0.18-0.119-0.288-0.117
			c-0.221,0.003-0.397,0.184-0.395,0.405c0.001,0.108,0.047,0.211,0.126,0.286l0.728,0.707c-5.881,6.043-9.505,14.294-9.505,23.392
			c0.016,10.349,4.81,20.111,12.988,26.453c0.116-0.014,0.213-0.098,0.227-0.219c0.016-0.107-0.043-0.21-0.138-0.258l0.037,0.006
			c-6.591-6.219-10.336-14.873-10.359-23.934c0-8.924,3.542-17.021,9.294-22.964l3.608,3.507c-1.464,1.586-2.753,3.349-3.827,5.269
			c-0.108,0.193-0.039,0.436,0.154,0.544c0.193,0.108,0.436,0.039,0.544-0.154l0,0c1.039-1.859,2.287-3.566,3.703-5.102l3.216,3.126
			c-1.906,2.012-3.454,4.395-4.519,7.068l2.708,0.702l0.122-0.263c0.991-2.039,2.274-3.876,3.782-5.474l2.481,2.411
			c0.154,0.158,0.407,0.162,0.565,0.008c0.158-0.154,0.162-0.407,0.008-0.565c-0.005-0.005-0.01-0.011-0.016-0.016l-2.479-2.409
			c2.243-2.209,4.934-3.914,7.89-4.994l0.312,1.163c0.052,0.215,0.268,0.347,0.483,0.295c0.215-0.052,0.347-0.268,0.295-0.483
			c-0.002-0.007-0.003-0.013-0.005-0.02l-0.327-1.217c2.146-0.696,4.419-1.069,6.748-1.072c4.307,0.008,8.516,1.281,12.105,3.661
			l-0.016-0.163c0.043,0.098,0.146,0.158,0.253,0.148c0.14-0.01,0.245-0.134,0.234-0.274c0-0.041-0.021-0.078-0.037-0.112
			c-0.043-0.035-0.087-0.071-0.131-0.107c0-0.006-0.01-0.006-0.016-0.006h0.006c-4-3.369-9.058-5.224-14.287-5.239l0,0
			c-1.893,0-3.744,0.245-5.52,0.701l-0.556-2.068c-0.044-0.174-0.199-0.297-0.379-0.301c-0.221-0.005-0.404,0.17-0.408,0.391
			c-0.001,0.04,0.004,0.08,0.015,0.118l0.557,2.073c-3.516,1.038-6.711,2.926-9.306,5.474l-3.224-3.134
			c2.388-2.442,5.217-4.414,8.343-5.8c0.203-0.087,0.298-0.322,0.211-0.525c-0.061-0.142-0.198-0.237-0.352-0.243
			c-0.063-0.002-0.126,0.01-0.183,0.036c-3.219,1.427-6.133,3.458-8.592,5.973l-3.597-3.496c5.961-5.869,14.14-9.492,23.167-9.492
			c7.837,0.014,15.414,2.815,21.377,7.902v-0.153c0.032,0.102,0.127,0.172,0.234,0.177c0.116,0.006,0.213-0.07,0.248-0.175
			c-6.301-6.567-14.998-10.292-24.099-10.322L1329.003,112.905z M1302.225,116.692l-3.175,3.175l3.175,3.174l3.175-3.174
			L1302.225,116.692z M1325.068,119.187l-3.802,1.019l1.019,3.802l3.802-1.019L1325.068,119.187z M1331.447,120.109
			c-1.516,0.006-3.04,0.131-4.556,0.387c-0.219,0.03-0.372,0.231-0.342,0.45c0.03,0.219,0.231,0.372,0.45,0.342
			c0.008-0.001,0.017-0.003,0.025-0.004c7.857-1.326,15.903,0.894,21.972,6.071c0.165,0.147,0.417,0.133,0.565-0.032
			c0.147-0.165,0.133-0.417-0.032-0.565c-0.004-0.004-0.009-0.008-0.014-0.012c-4.686-3.998-10.519-6.283-16.555-6.6
			C1332.456,120.121,1331.952,120.108,1331.447,120.109L1331.447,120.109z M1356.169,126.912c0.081,0.088,0.161,0.178,0.242,0.267
			c-0.048-0.06-0.093-0.119-0.139-0.179L1356.169,126.912z M1348.564,134.395c0.103,0.099,0.205,0.199,0.305,0.3
			c-0.057-0.07-0.114-0.138-0.172-0.207L1348.564,134.395z M1323.67,135.397c-0.072,0.001-0.143,0.021-0.205,0.059
			c-3.18,1.963-5.507,5.003-6.594,8.519l-2.701-0.534c-0.026-0.005-0.053-0.008-0.079-0.008c-0.221-0.003-0.402,0.173-0.406,0.394
			c-0.003,0.196,0.137,0.365,0.329,0.399l2.641,0.522c-0.145,0.574-0.259,1.159-0.338,1.753c-0.602,4.568,0.881,9.165,4.04,12.519
			c0.149,0.163,0.402,0.173,0.565,0.024c0.003-0.003,0.006-0.005,0.008-0.008l0,0c0.158-0.153,0.163-0.406,0.01-0.565
			c-2.995-3.179-4.401-7.537-3.83-11.867c0.076-0.577,0.188-1.145,0.331-1.702l1.579,0.312c0.216,0.044,0.428-0.095,0.472-0.311
			c0.044-0.216-0.095-0.428-0.311-0.472c-0.002,0-0.004-0.001-0.005-0.001l-1.515-0.299c1.041-3.299,3.233-6.148,6.224-7.995
			c0.188-0.116,0.245-0.363,0.129-0.551c-0.074-0.119-0.204-0.191-0.344-0.189L1323.67,135.397z M1309.491,140.959l-0.781,3.585
			l3.585,0.781l0.781-3.584L1309.491,140.959z M1328.429,144.556v0.267v25.336h18.759c-0.282-1.156-0.518-2.322-0.708-3.497h-14.176
			v-8.777h12.011v-3.497h-12.011v-6.336h15.21c0.31-1.148,0.665-2.283,1.065-3.403v-0.093H1328.429z M1370.109,144.556v0.267v25.336
			h3.657V149.48l6.503,13.776h2.33l6.554-13.784v20.687h3.875v-25.603h-5.08l-6.317,13.6l-6.531-13.6H1370.109z M1350.309,144.562
			v0.265v25.336h3.875v-22.208h3.042c1.045,0,1.9,0.079,2.557,0.229l0,0c0.67,0.14,1.257,0.375,1.767,0.704
			c0.582,0.38,1.006,0.861,1.289,1.457c0.284,0.598,0.43,1.308,0.43,2.141c0,0.714-0.108,1.349-0.321,1.909v0.006v0.006
			c-0.199,0.553-0.546,1.087-1.054,1.603c-0.492,0.491-1.134,0.856-1.94,1.092c-0.808,0.226-2.418,0.344-3.753,0.344l0,0
			l-1.419,3.378h2.481c1.823,0,3.343-0.214,4.565-0.655c1.215-0.45,2.276-1.123,3.169-2.014c0.723-0.721,1.284-1.573,1.68-2.547
			c0.408-0.988,0.611-2.057,0.611-3.199c0-1.49-0.269-2.743-0.826-3.747c-0.538-0.992-1.309-1.823-2.297-2.484
			c-0.838-0.557-1.797-0.962-2.87-1.215l0,0c-1.075-0.265-2.372-0.395-3.894-0.395L1350.309,144.562z M1308.886,146.105
			L1308.886,146.105l-0.01,0.113c-0.054,0.608-0.083,1.217-0.087,1.827c0.01,6.156,2.568,12.034,7.066,16.238
			c0.119-0.014,0.223-0.103,0.223-0.225c0.01-0.107-0.048-0.208-0.146-0.254l0.091,0.008c-3.252-3.93-5.037-8.869-5.046-13.971
			c0.01-1.114,0.105-2.224,0.281-3.324L1308.886,146.105z"/>
	</g>
</g>
</svg>
